<svg width="160" height="39" viewBox="0 0 160 39" fill="none" xmlns="http://www.w3.org/2000/svg">
<path d="M39.5947 37.7771V12.0903H42.1966V29.4906L49.4933 22.6252H52.9578L45.3783 29.5543L53.6295 37.7771H50.0024L42.1825 29.7734V37.7771H39.5947Z" fill="black"/>
<path d="M68.0884 30.5867H56.0687V30.82C56.0108 32.2644 56.5181 33.6746 57.4828 34.7512C57.9437 35.2475 58.5064 35.6384 59.1325 35.8972C59.7585 36.1559 60.433 36.2763 61.1099 36.2501C62.0889 36.2635 63.0486 35.9774 63.8603 35.4299C64.7672 34.7859 65.5106 33.9384 66.0309 32.9553L68.0035 34.2774C67.3505 35.5674 66.3415 36.6433 65.0959 37.3776C63.8504 38.1119 62.4205 38.4739 60.9756 38.4207C59.9332 38.462 58.8941 38.2796 57.9282 37.8856C56.9623 37.4917 56.092 36.8954 55.3758 36.137C53.9164 34.4872 53.1557 32.3346 53.2547 30.1342C53.1726 27.9874 53.9339 25.8937 55.3758 24.3011C56.0671 23.5579 56.9092 22.971 57.8456 22.5796C58.7821 22.1882 59.7913 22.0013 60.8059 22.0315C61.7965 21.9842 62.7856 22.1525 63.7048 22.5248C64.624 22.8971 65.4514 23.4646 66.1299 24.188C67.445 25.602 68.0955 27.5888 68.0955 30.0705L68.0884 30.5867ZM65.3026 28.4656C65.2974 27.8881 65.1771 27.3174 64.9489 26.7869C64.7207 26.2564 64.3891 25.7767 63.9734 25.3758C63.0514 24.611 61.8748 24.2222 60.6786 24.2869C59.5166 24.2406 58.383 24.6526 57.522 25.4342C56.661 26.2159 56.1416 27.3045 56.0758 28.4656H65.3026Z" fill="black"/>
<path d="M83.8052 30.5866H71.7855V30.8199C71.7276 32.2643 72.2349 33.6744 73.1996 34.751C73.6605 35.2474 74.2232 35.6383 74.8493 35.897C75.4753 36.1557 76.1498 36.2761 76.8267 36.25C77.8058 36.2643 78.7658 35.9781 79.5771 35.4298C80.484 34.7858 81.2274 33.9383 81.7477 32.9552L83.7203 34.2773C83.0673 35.5673 82.0582 36.6432 80.8127 37.3775C79.5671 38.1118 78.1373 38.4738 76.6924 38.4206C75.65 38.4619 74.6109 38.2794 73.645 37.8855C72.6791 37.4916 71.8088 36.8953 71.0926 36.1368C69.6332 34.4871 68.8725 32.3345 68.9715 30.1341C68.8894 27.9873 69.6507 25.8936 71.0926 24.301C71.7863 23.5551 72.6318 22.9666 73.5721 22.575C74.5125 22.1835 75.5258 21.9981 76.5439 22.0314C77.5355 21.9844 78.5255 22.1529 79.4458 22.5252C80.3661 22.8974 81.1948 23.4647 81.875 24.1878C83.183 25.6019 83.8335 27.5887 83.8335 30.0704L83.8052 30.5866ZM81.0265 28.4654C81.0184 27.8878 80.8961 27.3174 80.6668 26.7872C80.4374 26.2569 80.1056 25.7772 79.6902 25.3757C78.7707 24.6114 77.5964 24.2225 76.4025 24.2868C75.2406 24.257 74.1117 24.6746 73.2491 25.4534C72.3954 26.2454 71.8747 27.3322 71.7926 28.4937L81.0265 28.4654Z" fill="black"/>
<path d="M85.9902 37.7771V22.6252H88.5214V24.9655C89.1062 24.0513 89.9172 23.3036 90.8759 22.7949C91.8641 22.3067 92.9556 22.0642 94.0576 22.0879C95.5865 21.991 97.0923 22.4989 98.2503 23.5019C98.7661 24.0186 99.1668 24.6384 99.4263 25.3208C99.6859 26.0031 99.7983 26.7326 99.7563 27.4614V37.7842H97.1049V28.8472C97.2038 27.6391 96.8678 26.4355 96.1575 25.4534C95.7732 25.0563 95.3056 24.7496 94.7884 24.5551C94.2712 24.3607 93.7173 24.2836 93.1667 24.3292C92.4376 24.319 91.7147 24.4636 91.0456 24.7534C90.4311 25.0215 89.8902 25.4338 89.4689 25.9554C89.1397 26.3527 88.8987 26.8154 88.7618 27.3129C88.5938 28.1861 88.525 29.0756 88.5568 29.9643V37.7771H85.9902Z" fill="black"/>
<path d="M103.164 12.0903H105.731V25.4534C106.237 24.4114 107.023 23.5303 108 22.9081C108.987 22.322 110.119 22.0255 111.267 22.0525C112.246 22.0114 113.222 22.1894 114.123 22.5735C115.025 22.9575 115.829 23.5381 116.478 24.2727C117.845 25.9461 118.54 28.0681 118.429 30.2259C118.533 32.3857 117.821 34.5056 116.435 36.1651C115.778 36.9056 114.965 37.4908 114.054 37.8784C113.143 38.2661 112.157 38.4464 111.168 38.4064C110.04 38.4208 108.932 38.1143 107.972 37.5226C106.987 36.9037 106.18 36.0386 105.632 35.0126V37.763H103.164V12.0903ZM105.632 30.2684C105.541 31.7718 106.026 33.2533 106.989 34.4116C107.466 34.9157 108.047 35.3102 108.692 35.5678C109.336 35.8254 110.029 35.9399 110.722 35.9035C111.409 35.9385 112.095 35.8137 112.726 35.5389C113.356 35.2641 113.915 34.8468 114.357 34.3197C115.301 33.0607 115.77 31.5076 115.679 29.9361C115.762 28.5218 115.299 27.1296 114.385 26.0473C113.925 25.5683 113.368 25.194 112.75 24.9499C112.133 24.7059 111.47 24.5979 110.807 24.6332C110.107 24.6052 109.409 24.7297 108.762 24.9983C108.115 25.2669 107.534 25.6731 107.06 26.1887C106.072 27.3118 105.56 28.7747 105.632 30.2684Z" fill="black"/>
<path d="M120.36 15.3075C120.356 15.059 120.403 14.8124 120.498 14.5826C120.593 14.3529 120.733 14.1449 120.911 13.9712C121.087 13.7927 121.298 13.6517 121.53 13.5569C121.762 13.4621 122.011 13.4155 122.262 13.4197C122.511 13.4154 122.758 13.4628 122.988 13.5589C123.218 13.655 123.426 13.7978 123.598 13.9783C123.778 14.1566 123.92 14.3693 124.016 14.6038C124.112 14.8382 124.16 15.0896 124.156 15.3429C124.155 15.5901 124.106 15.8347 124.01 16.0626C123.914 16.2905 123.774 16.4972 123.598 16.6707C123.421 16.8442 123.213 16.9812 122.983 17.0736C122.754 17.1661 122.509 17.2122 122.262 17.2094C122.011 17.2133 121.762 17.1667 121.529 17.0724C121.297 16.9782 121.086 16.8383 120.908 16.6609C120.731 16.4835 120.591 16.2723 120.497 16.0398C120.402 15.8074 120.356 15.5583 120.36 15.3075ZM120.975 37.7773V22.6254H123.591V37.7773H120.975Z" fill="black"/>
<path d="M127.727 24.7465H124.941V22.6254H127.727V16.5024H130.379V22.6254H133.157V24.7465H130.379V37.7773H127.727V24.7465Z" fill="black"/>
<path d="M147.92 30.5865H135.9V30.8198C135.842 32.2644 136.349 33.6748 137.314 34.751C137.777 35.2472 138.341 35.6379 138.968 35.8965C139.595 36.1552 140.271 36.2757 140.949 36.2499C141.928 36.2625 142.887 35.9764 143.699 35.4298C144.604 34.7838 145.347 33.9367 145.87 32.9551L147.842 34.2773C147.165 35.5554 146.157 36.6275 144.922 37.3812C143.672 38.092 142.252 38.4512 140.814 38.4205C139.772 38.4628 138.732 38.2807 137.766 37.8868C136.8 37.4928 135.93 36.896 135.215 36.1368C133.751 34.4898 132.989 32.3352 133.093 30.134C133.011 27.9872 133.773 25.8935 135.215 24.3009C135.908 23.555 136.754 22.9665 137.694 22.575C138.634 22.1835 139.648 21.9981 140.666 22.0313C141.658 21.983 142.648 22.1508 143.569 22.5231C144.489 22.8955 145.318 23.4635 145.997 24.1878C147.305 25.6019 147.963 27.5887 147.963 30.0704L147.92 30.5865ZM145.134 28.4654C145.128 27.8875 145.006 27.3167 144.777 26.7862C144.547 26.2557 144.215 25.7762 143.798 25.3756C142.879 24.6101 141.704 24.221 140.51 24.2868C139.348 24.2404 138.215 24.6524 137.354 25.4341C136.493 26.2157 135.973 27.3044 135.907 28.4654H145.134Z" fill="black"/>
<path d="M148.479 35.2248L150.699 33.7329C151.055 34.4714 151.605 35.0994 152.289 35.55C152.972 35.9646 153.76 36.1733 154.559 36.151C155.299 36.187 156.029 35.9646 156.624 35.5217C156.876 35.3279 157.079 35.0768 157.216 34.7892C157.352 34.5015 157.418 34.1855 157.408 33.8673C157.415 33.6206 157.371 33.3752 157.279 33.1465C157.186 32.9177 157.047 32.7106 156.871 32.538C156.33 32.0844 155.699 31.7517 155.019 31.5623L154.594 31.4138C150.904 30.1412 149.058 28.5503 149.058 26.6413C149.044 26.0084 149.175 25.3807 149.443 24.8069C149.71 24.2331 150.106 23.7285 150.6 23.3324C151.69 22.4439 153.069 21.9883 154.474 22.0526C155.649 22.0196 156.813 22.2899 157.854 22.8374C158.762 23.3315 159.475 24.1193 159.876 25.0717L157.755 26.3585C157.469 25.6917 156.985 25.1289 156.369 24.7464C155.731 24.3577 154.995 24.1613 154.248 24.1808C153.567 24.1541 152.901 24.3837 152.381 24.8242C152.15 25.0271 151.967 25.2789 151.844 25.5613C151.722 25.8438 151.664 26.1499 151.674 26.4575C151.674 27.4002 152.681 28.1779 154.693 28.7907L155.584 29.0735C156.857 29.3966 158.034 30.017 159.021 30.8836C159.689 31.6172 160.04 32.5858 159.996 33.5774C160.017 34.2371 159.89 34.8932 159.625 35.4976C159.359 36.1019 158.962 36.6392 158.462 37.0702C157.337 37.9908 155.912 38.4641 154.46 38.3994C153.211 38.4379 151.972 38.1658 150.854 37.6075C149.846 37.0628 149.02 36.2344 148.479 35.2248Z" fill="black"/>
<path d="M0 1.74213e-06C1.96948 -0.000936917 3.91986 0.377446 5.7397 1.11353C7.55954 1.84962 9.21318 2.92899 10.6062 4.28997C11.9991 5.65096 13.1041 7.26689 13.8581 9.04544C14.612 10.824 15 12.7303 15 14.6555V38C13.0305 38.0009 11.0801 37.6226 9.2603 36.8865C7.44046 36.1504 5.78682 35.071 4.39384 33.71C3.00087 32.349 1.89586 30.7331 1.14195 28.9546C0.388039 27.176 -2.34094e-07 25.2697 0 23.3445V1.74213e-06Z" fill="#0000FF"/>
<path opacity="0.35" d="M1.49213e-05 17C1.97043 17 3.92155 17.3988 5.74189 18.1735C7.56223 18.9483 9.21613 20.0839 10.6091 21.5154C12.0021 22.9469 13.1068 24.6463 13.8602 26.5165C14.6136 28.3867 15.0009 30.391 15 32.415V38C13.0284 38 11.0761 37.6007 9.25486 36.8251C7.4336 36.0494 5.77908 34.9125 4.38592 33.4795C2.99277 32.0465 1.88832 30.3454 1.13574 28.4735C0.383168 26.6016 -0.00276591 24.5957 1.49213e-05 22.5705V17Z" fill="#0000AC"/>
<path opacity="0.31" d="M0 0C3.97825 0 7.79356 1.57763 10.6066 4.38584C13.4196 7.19404 15 11.0028 15 14.9742V29C11.0218 29 7.20644 27.4224 4.3934 24.6142C1.58035 21.806 0 17.9972 0 14.0258L0 0Z" fill="#1B1464"/>
<path opacity="0.79" d="M16 17C17.9701 16.999 19.9211 17.3843 21.7414 18.1339C23.5617 18.8834 25.2157 19.9824 26.6087 21.3681C28.0018 22.7539 29.1067 24.3991 29.8601 26.2099C30.6136 28.0206 31.001 29.9613 31 31.9211V38H16V17Z" fill="#0000FF"/>
<path d="M25.7792 9.36117C23.8489 11.8075 16.7361 12.1893 16.7361 12.1893C16.7361 12.1893 14.9897 4.82904 16.9129 2.38268C17.8757 1.32604 19.203 0.673173 20.6276 0.555379C22.0523 0.437586 23.4687 0.863603 24.5921 1.74775C25.7154 2.6319 26.4623 3.90859 26.6825 5.32106C26.9027 6.73354 26.58 8.17701 25.7792 9.36117Z" fill="#194CFF"/>
</svg>
